<?xml version="1.0" encoding="UTF-8" standalone="no"?><svg xmlns="http://www.w3.org/2000/svg" xmlns:xlink="http://www.w3.org/1999/xlink" contentStyleType="text/css" height="1383px" preserveAspectRatio="none" style="width:738px;height:1383px;background:#FFFFFF;" version="1.1" viewBox="0 0 738 1383" width="738px" zoomAndPan="magnify"><defs/><g><!--MD5=[2bd084d4f9b8ff009b6d8ba013c0f313]
class Sexo--><g id="elem_Sexo"><rect codeLine="1" fill="#F1F1F1" height="96.8906" id="Sexo" rx="2.5" ry="2.5" style="stroke:#181818;stroke-width:0.5;" width="81" x="240.5" y="23"/><ellipse cx="262.25" cy="39" fill="#EB937F" rx="11" ry="11" style="stroke:#181818;stroke-width:1.0;"/><path d="M266.3594,45 L258.6406,45 L258.6406,32.6094 L266.3594,32.6094 L266.3594,34.7656 L261.0938,34.7656 L261.0938,37.4375 L265.8594,37.4375 L265.8594,39.5938 L261.0938,39.5938 L261.0938,42.8438 L266.3594,42.8438 L266.3594,45 Z " fill="#000000"/><text fill="#000000" font-family="sans-serif" font-size="14" lengthAdjust="spacing" textLength="34" x="277.75" y="43.8467">Sexo</text><line style="stroke:#181818;stroke-width:0.5;" x1="241.5" x2="320.5" y1="55" y2="55"/><text fill="#000000" font-family="sans-serif" font-size="14" lengthAdjust="spacing" textLength="69" x="246.5" y="71.9951">Masculino</text><text fill="#000000" font-family="sans-serif" font-size="14" lengthAdjust="spacing" textLength="63" x="246.5" y="88.292">Feminino</text><text fill="#000000" font-family="sans-serif" font-size="14" lengthAdjust="spacing" textLength="39" x="246.5" y="104.5889">Outro</text><line style="stroke:#181818;stroke-width:0.5;" x1="241.5" x2="320.5" y1="111.8906" y2="111.8906"/></g><!--MD5=[9836121c077fa4c150cd37d2de5070cf]
class EstadoCivil--><g id="elem_EstadoCivil"><rect codeLine="7" fill="#F1F1F1" height="129.4844" id="EstadoCivil" rx="2.5" ry="2.5" style="stroke:#181818;stroke-width:0.5;" width="106" x="357" y="7"/><ellipse cx="372" cy="23" fill="#EB937F" rx="11" ry="11" style="stroke:#181818;stroke-width:1.0;"/><path d="M376.1094,29 L368.3906,29 L368.3906,16.6094 L376.1094,16.6094 L376.1094,18.7656 L370.8438,18.7656 L370.8438,21.4375 L375.6094,21.4375 L375.6094,23.5938 L370.8438,23.5938 L370.8438,26.8438 L376.1094,26.8438 L376.1094,29 Z " fill="#000000"/><text fill="#000000" font-family="sans-serif" font-size="14" lengthAdjust="spacing" textLength="74" x="386" y="27.8467">EstadoCivil</text><line style="stroke:#181818;stroke-width:0.5;" x1="358" x2="462" y1="39" y2="39"/><text fill="#000000" font-family="sans-serif" font-size="14" lengthAdjust="spacing" textLength="52" x="363" y="55.9951">Solteiro</text><text fill="#000000" font-family="sans-serif" font-size="14" lengthAdjust="spacing" textLength="52" x="363" y="72.292">Casado</text><text fill="#000000" font-family="sans-serif" font-size="14" lengthAdjust="spacing" textLength="72" x="363" y="88.5889">Divorciado</text><text fill="#000000" font-family="sans-serif" font-size="14" lengthAdjust="spacing" textLength="37" x="363" y="104.8857">Viuvo</text><text fill="#000000" font-family="sans-serif" font-size="14" lengthAdjust="spacing" textLength="66" x="363" y="121.1826">Separado</text><line style="stroke:#181818;stroke-width:0.5;" x1="358" x2="462" y1="128.4844" y2="128.4844"/></g><!--MD5=[e58b328d98718587d2cf25b4c2010115]
class Paciente--><g id="elem_Paciente"><rect codeLine="17" fill="#F1F1F1" height="243.5625" id="Paciente" rx="2.5" ry="2.5" style="stroke:#181818;stroke-width:0.5;" width="216" x="237" y="196"/><ellipse cx="310.75" cy="212" fill="#ADD1B2" rx="11" ry="11" style="stroke:#181818;stroke-width:1.0;"/><path d="M313.7188,217.6406 Q313.1406,217.9375 312.5,218.0781 Q311.8594,218.2344 311.1563,218.2344 Q308.6563,218.2344 307.3281,216.5938 Q306.0156,214.9375 306.0156,211.8125 Q306.0156,208.6875 307.3281,207.0313 Q308.6563,205.375 311.1563,205.375 Q311.8594,205.375 312.5,205.5313 Q313.1563,205.6875 313.7188,205.9844 L313.7188,208.7031 Q313.0938,208.125 312.5,207.8594 Q311.9063,207.5781 311.2813,207.5781 Q309.9375,207.5781 309.25,208.6563 Q308.5625,209.7188 308.5625,211.8125 Q308.5625,213.9063 309.25,214.9844 Q309.9375,216.0469 311.2813,216.0469 Q311.9063,216.0469 312.5,215.7813 Q313.0938,215.5 313.7188,214.9219 L313.7188,217.6406 Z " fill="#000000"/><text fill="#000000" font-family="sans-serif" font-size="14" lengthAdjust="spacing" textLength="60" x="331.25" y="216.8467">Paciente</text><line style="stroke:#181818;stroke-width:0.5;" x1="238" x2="452" y1="228" y2="228"/><ellipse cx="248" cy="241.6484" fill="none" rx="3" ry="3" style="stroke:#038048;stroke-width:1.0;"/><text fill="#000000" font-family="sans-serif" font-size="14" lengthAdjust="spacing" textLength="53" x="257" y="244.9951">Id: Guid</text><ellipse cx="248" cy="257.9453" fill="none" rx="3" ry="3" style="stroke:#038048;stroke-width:1.0;"/><text fill="#000000" font-family="sans-serif" font-size="14" lengthAdjust="spacing" textLength="156" x="257" y="261.292">NomeCompleto: string</text><ellipse cx="248" cy="274.2422" fill="none" rx="3" ry="3" style="stroke:#038048;stroke-width:1.0;"/><text fill="#000000" font-family="sans-serif" font-size="14" lengthAdjust="spacing" textLength="75" x="257" y="277.5889">CPF: string</text><ellipse cx="248" cy="290.5391" fill="none" rx="3" ry="3" style="stroke:#038048;stroke-width:1.0;"/><text fill="#000000" font-family="sans-serif" font-size="14" lengthAdjust="spacing" textLength="190" x="257" y="293.8857">DataNascimento: DateTime</text><ellipse cx="248" cy="306.8359" fill="none" rx="3" ry="3" style="stroke:#038048;stroke-width:1.0;"/><text fill="#000000" font-family="sans-serif" font-size="14" lengthAdjust="spacing" textLength="152" x="257" y="310.1826">TipoSanguineo: string</text><ellipse cx="248" cy="323.1328" fill="none" rx="3" ry="3" style="stroke:#038048;stroke-width:1.0;"/><text fill="#000000" font-family="sans-serif" font-size="14" lengthAdjust="spacing" textLength="109" x="257" y="326.4795">Telefone: string</text><ellipse cx="248" cy="339.4297" fill="none" rx="3" ry="3" style="stroke:#038048;stroke-width:1.0;"/><text fill="#000000" font-family="sans-serif" font-size="14" lengthAdjust="spacing" textLength="84" x="257" y="342.7764">Email: string</text><ellipse cx="248" cy="355.7266" fill="none" rx="3" ry="3" style="stroke:#038048;stroke-width:1.0;"/><text fill="#000000" font-family="sans-serif" font-size="14" lengthAdjust="spacing" textLength="182" x="257" y="359.0732">EnderecoCompleto: string</text><ellipse cx="248" cy="372.0234" fill="none" rx="3" ry="3" style="stroke:#038048;stroke-width:1.0;"/><text fill="#000000" font-family="sans-serif" font-size="14" lengthAdjust="spacing" textLength="176" x="257" y="375.3701">NumeroCartaoSUS: string</text><ellipse cx="248" cy="388.3203" fill="none" rx="3" ry="3" style="stroke:#038048;stroke-width:1.0;"/><text fill="#000000" font-family="sans-serif" font-size="14" lengthAdjust="spacing" textLength="167" x="257" y="391.667">PossuiPlanoSaude: bool</text><ellipse cx="248" cy="404.6172" fill="none" rx="3" ry="3" style="stroke:#038048;stroke-width:1.0;"/><text fill="#000000" font-family="sans-serif" font-size="14" lengthAdjust="spacing" textLength="157" x="257" y="407.9639">EstadoCivil: EstadoCivil</text><ellipse cx="248" cy="420.9141" fill="none" rx="3" ry="3" style="stroke:#038048;stroke-width:1.0;"/><text fill="#000000" font-family="sans-serif" font-size="14" lengthAdjust="spacing" textLength="77" x="257" y="424.2607">Sexo: Sexo</text><line style="stroke:#181818;stroke-width:0.5;" x1="238" x2="452" y1="431.5625" y2="431.5625"/></g><!--MD5=[2f5c498960591a320b802cfec9ce76fa]
class ProfissionalDeSaude--><g id="elem_ProfissionalDeSaude"><rect codeLine="32" fill="#F1F1F1" height="227.2656" id="ProfissionalDeSaude" rx="2.5" ry="2.5" style="stroke:#181818;stroke-width:0.5;" width="201" x="486.5" y="500"/><ellipse cx="513.65" cy="516" fill="#ADD1B2" rx="11" ry="11" style="stroke:#181818;stroke-width:1.0;"/><path d="M516.6188,521.6406 Q516.0406,521.9375 515.4,522.0781 Q514.7594,522.2344 514.0563,522.2344 Q511.5563,522.2344 510.2281,520.5938 Q508.9156,518.9375 508.9156,515.8125 Q508.9156,512.6875 510.2281,511.0313 Q511.5563,509.375 514.0563,509.375 Q514.7594,509.375 515.4,509.5313 Q516.0563,509.6875 516.6188,509.9844 L516.6188,512.7031 Q515.9938,512.125 515.4,511.8594 Q514.8063,511.5781 514.1813,511.5781 Q512.8375,511.5781 512.15,512.6563 Q511.4625,513.7188 511.4625,515.8125 Q511.4625,517.9063 512.15,518.9844 Q512.8375,520.0469 514.1813,520.0469 Q514.8063,520.0469 515.4,519.7813 Q515.9938,519.5 516.6188,518.9219 L516.6188,521.6406 Z " fill="#000000"/><text fill="#000000" font-family="sans-serif" font-size="14" lengthAdjust="spacing" textLength="142" x="530.35" y="520.8467">ProfissionalDeSaude</text><line style="stroke:#181818;stroke-width:0.5;" x1="487.5" x2="686.5" y1="532" y2="532"/><ellipse cx="497.5" cy="545.6484" fill="none" rx="3" ry="3" style="stroke:#038048;stroke-width:1.0;"/><text fill="#000000" font-family="sans-serif" font-size="14" lengthAdjust="spacing" textLength="53" x="506.5" y="548.9951">Id: Guid</text><ellipse cx="497.5" cy="561.9453" fill="none" rx="3" ry="3" style="stroke:#038048;stroke-width:1.0;"/><text fill="#000000" font-family="sans-serif" font-size="14" lengthAdjust="spacing" textLength="156" x="506.5" y="565.292">NomeCompleto: string</text><ellipse cx="497.5" cy="578.2422" fill="none" rx="3" ry="3" style="stroke:#038048;stroke-width:1.0;"/><text fill="#000000" font-family="sans-serif" font-size="14" lengthAdjust="spacing" textLength="75" x="506.5" y="581.5889">CPF: string</text><ellipse cx="497.5" cy="594.5391" fill="none" rx="3" ry="3" style="stroke:#038048;stroke-width:1.0;"/><text fill="#000000" font-family="sans-serif" font-size="14" lengthAdjust="spacing" textLength="84" x="506.5" y="597.8857">Email: string</text><ellipse cx="497.5" cy="610.8359" fill="none" rx="3" ry="3" style="stroke:#038048;stroke-width:1.0;"/><text fill="#000000" font-family="sans-serif" font-size="14" lengthAdjust="spacing" textLength="109" x="506.5" y="614.1826">Telefone: string</text><ellipse cx="497.5" cy="627.1328" fill="none" rx="3" ry="3" style="stroke:#038048;stroke-width:1.0;"/><text fill="#000000" font-family="sans-serif" font-size="14" lengthAdjust="spacing" textLength="172" x="506.5" y="630.4795">RegistroConselho: string</text><ellipse cx="497.5" cy="643.4297" fill="none" rx="3" ry="3" style="stroke:#038048;stroke-width:1.0;"/><text fill="#000000" font-family="sans-serif" font-size="14" lengthAdjust="spacing" textLength="136" x="506.5" y="646.7764">TipoRegistro: string</text><ellipse cx="497.5" cy="659.7266" fill="none" rx="3" ry="3" style="stroke:#038048;stroke-width:1.0;"/><text fill="#000000" font-family="sans-serif" font-size="14" lengthAdjust="spacing" textLength="175" x="506.5" y="663.0732">DataAdmissao: DateTime</text><ellipse cx="497.5" cy="676.0234" fill="none" rx="3" ry="3" style="stroke:#038048;stroke-width:1.0;"/><text fill="#000000" font-family="sans-serif" font-size="14" lengthAdjust="spacing" textLength="173" x="506.5" y="679.3701">CargaHorariaSemanal: int</text><ellipse cx="497.5" cy="692.3203" fill="none" rx="3" ry="3" style="stroke:#038048;stroke-width:1.0;"/><text fill="#000000" font-family="sans-serif" font-size="14" lengthAdjust="spacing" textLength="89" x="506.5" y="695.667">Turno: string</text><ellipse cx="497.5" cy="708.6172" fill="none" rx="3" ry="3" style="stroke:#038048;stroke-width:1.0;"/><text fill="#000000" font-family="sans-serif" font-size="14" lengthAdjust="spacing" textLength="72" x="506.5" y="711.9639">Ativo: bool</text><line style="stroke:#181818;stroke-width:0.5;" x1="487.5" x2="686.5" y1="719.2656" y2="719.2656"/></g><!--MD5=[b4f84e1af414bcd58f15ba18c1519ef8]
class Especialidade--><g id="elem_Especialidade"><rect codeLine="46" fill="#F1F1F1" height="64.2969" id="Especialidade" rx="2.5" ry="2.5" style="stroke:#181818;stroke-width:0.5;" width="127" x="523.5" y="819.5"/><ellipse cx="538.5" cy="835.5" fill="#ADD1B2" rx="11" ry="11" style="stroke:#181818;stroke-width:1.0;"/><path d="M541.4688,841.1406 Q540.8906,841.4375 540.25,841.5781 Q539.6094,841.7344 538.9063,841.7344 Q536.4063,841.7344 535.0781,840.0938 Q533.7656,838.4375 533.7656,835.3125 Q533.7656,832.1875 535.0781,830.5313 Q536.4063,828.875 538.9063,828.875 Q539.6094,828.875 540.25,829.0313 Q540.9063,829.1875 541.4688,829.4844 L541.4688,832.2031 Q540.8438,831.625 540.25,831.3594 Q539.6563,831.0781 539.0313,831.0781 Q537.6875,831.0781 537,832.1563 Q536.3125,833.2188 536.3125,835.3125 Q536.3125,837.4063 537,838.4844 Q537.6875,839.5469 539.0313,839.5469 Q539.6563,839.5469 540.25,839.2813 Q540.8438,839 541.4688,838.4219 L541.4688,841.1406 Z " fill="#000000"/><text fill="#000000" font-family="sans-serif" font-size="14" lengthAdjust="spacing" textLength="95" x="552.5" y="840.3467">Especialidade</text><line style="stroke:#181818;stroke-width:0.5;" x1="524.5" x2="649.5" y1="851.5" y2="851.5"/><ellipse cx="534.5" cy="865.1484" fill="none" rx="3" ry="3" style="stroke:#038048;stroke-width:1.0;"/><text fill="#000000" font-family="sans-serif" font-size="14" lengthAdjust="spacing" textLength="89" x="543.5" y="868.4951">Nome: string</text><line style="stroke:#181818;stroke-width:0.5;" x1="524.5" x2="649.5" y1="875.7969" y2="875.7969"/></g><!--MD5=[c20a89284a0e8e6ac8e0ff70dfb586d7]
class Prontuario--><g id="elem_Prontuario"><rect codeLine="50" fill="#F1F1F1" height="113.1875" id="Prontuario" rx="2.5" ry="2.5" style="stroke:#181818;stroke-width:0.5;" width="213" x="238.5" y="557"/><ellipse cx="305.25" cy="573" fill="#ADD1B2" rx="11" ry="11" style="stroke:#181818;stroke-width:1.0;"/><path d="M308.2188,578.6406 Q307.6406,578.9375 307,579.0781 Q306.3594,579.2344 305.6563,579.2344 Q303.1563,579.2344 301.8281,577.5938 Q300.5156,575.9375 300.5156,572.8125 Q300.5156,569.6875 301.8281,568.0313 Q303.1563,566.375 305.6563,566.375 Q306.3594,566.375 307,566.5313 Q307.6563,566.6875 308.2188,566.9844 L308.2188,569.7031 Q307.5938,569.125 307,568.8594 Q306.4063,568.5781 305.7813,568.5781 Q304.4375,568.5781 303.75,569.6563 Q303.0625,570.7188 303.0625,572.8125 Q303.0625,574.9063 303.75,575.9844 Q304.4375,577.0469 305.7813,577.0469 Q306.4063,577.0469 307,576.7813 Q307.5938,576.5 308.2188,575.9219 L308.2188,578.6406 Z " fill="#000000"/><text fill="#000000" font-family="sans-serif" font-size="14" lengthAdjust="spacing" textLength="71" x="325.75" y="577.8467">Prontuario</text><line style="stroke:#181818;stroke-width:0.5;" x1="239.5" x2="450.5" y1="589" y2="589"/><ellipse cx="249.5" cy="602.6484" fill="none" rx="3" ry="3" style="stroke:#038048;stroke-width:1.0;"/><text fill="#000000" font-family="sans-serif" font-size="14" lengthAdjust="spacing" textLength="53" x="258.5" y="605.9951">Id: Guid</text><ellipse cx="249.5" cy="618.9453" fill="none" rx="3" ry="3" style="stroke:#038048;stroke-width:1.0;"/><text fill="#000000" font-family="sans-serif" font-size="14" lengthAdjust="spacing" textLength="172" x="258.5" y="622.292">NumeroDoProntuario: int</text><ellipse cx="249.5" cy="635.2422" fill="none" rx="3" ry="3" style="stroke:#038048;stroke-width:1.0;"/><text fill="#000000" font-family="sans-serif" font-size="14" lengthAdjust="spacing" textLength="187" x="258.5" y="638.5889">DataDeAbertura: DateTime</text><ellipse cx="249.5" cy="651.5391" fill="none" rx="3" ry="3" style="stroke:#038048;stroke-width:1.0;"/><text fill="#000000" font-family="sans-serif" font-size="14" lengthAdjust="spacing" textLength="183" x="258.5" y="654.8857">ObservacoesDerais: string</text><line style="stroke:#181818;stroke-width:0.5;" x1="239.5" x2="450.5" y1="662.1875" y2="662.1875"/></g><!--MD5=[ef89f3e2f43deecdeff3bf98ffd9df20]
class Atendimento--><g id="elem_Atendimento"><rect codeLine="57" fill="#F1F1F1" height="129.4844" id="Atendimento" rx="2.5" ry="2.5" style="stroke:#181818;stroke-width:0.5;" width="175" x="285.5" y="787"/><ellipse cx="324.8" cy="803" fill="#ADD1B2" rx="11" ry="11" style="stroke:#181818;stroke-width:1.0;"/><path d="M327.7688,808.6406 Q327.1906,808.9375 326.55,809.0781 Q325.9094,809.2344 325.2063,809.2344 Q322.7063,809.2344 321.3781,807.5938 Q320.0656,805.9375 320.0656,802.8125 Q320.0656,799.6875 321.3781,798.0313 Q322.7063,796.375 325.2063,796.375 Q325.9094,796.375 326.55,796.5313 Q327.2063,796.6875 327.7688,796.9844 L327.7688,799.7031 Q327.1438,799.125 326.55,798.8594 Q325.9563,798.5781 325.3313,798.5781 Q323.9875,798.5781 323.3,799.6563 Q322.6125,800.7188 322.6125,802.8125 Q322.6125,804.9063 323.3,805.9844 Q323.9875,807.0469 325.3313,807.0469 Q325.9563,807.0469 326.55,806.7813 Q327.1438,806.5 327.7688,805.9219 L327.7688,808.6406 Z " fill="#000000"/><text fill="#000000" font-family="sans-serif" font-size="14" lengthAdjust="spacing" textLength="89" x="344.2" y="807.8467">Atendimento</text><line style="stroke:#181818;stroke-width:0.5;" x1="286.5" x2="459.5" y1="819" y2="819"/><ellipse cx="296.5" cy="832.6484" fill="none" rx="3" ry="3" style="stroke:#038048;stroke-width:1.0;"/><text fill="#000000" font-family="sans-serif" font-size="14" lengthAdjust="spacing" textLength="53" x="305.5" y="835.9951">Id: Guid</text><ellipse cx="296.5" cy="848.9453" fill="none" rx="3" ry="3" style="stroke:#038048;stroke-width:1.0;"/><text fill="#000000" font-family="sans-serif" font-size="14" lengthAdjust="spacing" textLength="149" x="305.5" y="852.292">DataEHora: DateTime</text><ellipse cx="296.5" cy="865.2422" fill="none" rx="3" ry="3" style="stroke:#038048;stroke-width:1.0;"/><text fill="#000000" font-family="sans-serif" font-size="14" lengthAdjust="spacing" textLength="78" x="305.5" y="868.5889">Tipo: string</text><ellipse cx="296.5" cy="881.5391" fill="none" rx="3" ry="3" style="stroke:#038048;stroke-width:1.0;"/><text fill="#000000" font-family="sans-serif" font-size="14" lengthAdjust="spacing" textLength="92" x="305.5" y="884.8857">Status: string</text><ellipse cx="296.5" cy="897.8359" fill="none" rx="3" ry="3" style="stroke:#038048;stroke-width:1.0;"/><text fill="#000000" font-family="sans-serif" font-size="14" lengthAdjust="spacing" textLength="83" x="305.5" y="901.1826">Local: string</text><line style="stroke:#181818;stroke-width:0.5;" x1="286.5" x2="459.5" y1="908.4844" y2="908.4844"/></g><!--MD5=[955fc27bbc386949d153cc3f0f1d78f5]
class Exame--><g id="elem_Exame"><rect codeLine="65" fill="#F1F1F1" height="129.4844" id="Exame" rx="2.5" ry="2.5" style="stroke:#181818;stroke-width:0.5;" width="228" x="7" y="1033.5"/><ellipse cx="93.75" cy="1049.5" fill="#ADD1B2" rx="11" ry="11" style="stroke:#181818;stroke-width:1.0;"/><path d="M96.7188,1055.1406 Q96.1406,1055.4375 95.5,1055.5781 Q94.8594,1055.7344 94.1563,1055.7344 Q91.6563,1055.7344 90.3281,1054.0938 Q89.0156,1052.4375 89.0156,1049.3125 Q89.0156,1046.1875 90.3281,1044.5313 Q91.6563,1042.875 94.1563,1042.875 Q94.8594,1042.875 95.5,1043.0313 Q96.1563,1043.1875 96.7188,1043.4844 L96.7188,1046.2031 Q96.0938,1045.625 95.5,1045.3594 Q94.9063,1045.0781 94.2813,1045.0781 Q92.9375,1045.0781 92.25,1046.1563 Q91.5625,1047.2188 91.5625,1049.3125 Q91.5625,1051.4063 92.25,1052.4844 Q92.9375,1053.5469 94.2813,1053.5469 Q94.9063,1053.5469 95.5,1053.2813 Q96.0938,1053 96.7188,1052.4219 L96.7188,1055.1406 Z " fill="#000000"/><text fill="#000000" font-family="sans-serif" font-size="14" lengthAdjust="spacing" textLength="46" x="114.25" y="1054.3467">Exame</text><line style="stroke:#181818;stroke-width:0.5;" x1="8" x2="234" y1="1065.5" y2="1065.5"/><ellipse cx="18" cy="1079.1484" fill="none" rx="3" ry="3" style="stroke:#038048;stroke-width:1.0;"/><text fill="#000000" font-family="sans-serif" font-size="14" lengthAdjust="spacing" textLength="53" x="27" y="1082.4951">Id: Guid</text><ellipse cx="18" cy="1095.4453" fill="none" rx="3" ry="3" style="stroke:#038048;stroke-width:1.0;"/><text fill="#000000" font-family="sans-serif" font-size="14" lengthAdjust="spacing" textLength="78" x="27" y="1098.792">Tipo: string</text><ellipse cx="18" cy="1111.7422" fill="none" rx="3" ry="3" style="stroke:#038048;stroke-width:1.0;"/><text fill="#000000" font-family="sans-serif" font-size="14" lengthAdjust="spacing" textLength="201" x="27" y="1115.0889">DataDeSolicitacao: DateTime</text><ellipse cx="18" cy="1128.0391" fill="none" rx="3" ry="3" style="stroke:#038048;stroke-width:1.0;"/><text fill="#000000" font-family="sans-serif" font-size="14" lengthAdjust="spacing" textLength="202" x="27" y="1131.3857">DataDeRealizacao: DateTime</text><ellipse cx="18" cy="1144.3359" fill="none" rx="3" ry="3" style="stroke:#038048;stroke-width:1.0;"/><text fill="#000000" font-family="sans-serif" font-size="14" lengthAdjust="spacing" textLength="118" x="27" y="1147.6826">Resultado: string</text><line style="stroke:#181818;stroke-width:0.5;" x1="8" x2="234" y1="1154.9844" y2="1154.9844"/></g><!--MD5=[fd94795a2a4121b3f29286a4ee59306f]
class Prescricao--><g id="elem_Prescricao"><rect codeLine="73" fill="#F1F1F1" height="210.9688" id="Prescricao" rx="2.5" ry="2.5" style="stroke:#181818;stroke-width:0.5;" width="205" x="270.5" y="992.5"/><ellipse cx="332.75" cy="1008.5" fill="#ADD1B2" rx="11" ry="11" style="stroke:#181818;stroke-width:1.0;"/><path d="M335.7188,1014.1406 Q335.1406,1014.4375 334.5,1014.5781 Q333.8594,1014.7344 333.1563,1014.7344 Q330.6563,1014.7344 329.3281,1013.0938 Q328.0156,1011.4375 328.0156,1008.3125 Q328.0156,1005.1875 329.3281,1003.5313 Q330.6563,1001.875 333.1563,1001.875 Q333.8594,1001.875 334.5,1002.0313 Q335.1563,1002.1875 335.7188,1002.4844 L335.7188,1005.2031 Q335.0938,1004.625 334.5,1004.3594 Q333.9063,1004.0781 333.2813,1004.0781 Q331.9375,1004.0781 331.25,1005.1563 Q330.5625,1006.2188 330.5625,1008.3125 Q330.5625,1010.4063 331.25,1011.4844 Q331.9375,1012.5469 333.2813,1012.5469 Q333.9063,1012.5469 334.5,1012.2813 Q335.0938,1012 335.7188,1011.4219 L335.7188,1014.1406 Z " fill="#000000"/><text fill="#000000" font-family="sans-serif" font-size="14" lengthAdjust="spacing" textLength="72" x="353.25" y="1013.3467">Prescricao</text><line style="stroke:#181818;stroke-width:0.5;" x1="271.5" x2="474.5" y1="1024.5" y2="1024.5"/><ellipse cx="281.5" cy="1038.1484" fill="none" rx="3" ry="3" style="stroke:#038048;stroke-width:1.0;"/><text fill="#000000" font-family="sans-serif" font-size="14" lengthAdjust="spacing" textLength="53" x="290.5" y="1041.4951">Id: Guid</text><ellipse cx="281.5" cy="1054.4453" fill="none" rx="3" ry="3" style="stroke:#038048;stroke-width:1.0;"/><text fill="#000000" font-family="sans-serif" font-size="14" lengthAdjust="spacing" textLength="142" x="290.5" y="1057.792">Medicamento: string</text><ellipse cx="281.5" cy="1070.7422" fill="none" rx="3" ry="3" style="stroke:#038048;stroke-width:1.0;"/><text fill="#000000" font-family="sans-serif" font-size="14" lengthAdjust="spacing" textLength="115" x="290.5" y="1074.0889">Dosagem: string</text><ellipse cx="281.5" cy="1087.0391" fill="none" rx="3" ry="3" style="stroke:#038048;stroke-width:1.0;"/><text fill="#000000" font-family="sans-serif" font-size="14" lengthAdjust="spacing" textLength="125" x="290.5" y="1090.3857">Frequencia: string</text><ellipse cx="281.5" cy="1103.3359" fill="none" rx="3" ry="3" style="stroke:#038048;stroke-width:1.0;"/><text fill="#000000" font-family="sans-serif" font-size="14" lengthAdjust="spacing" textLength="165" x="290.5" y="1106.6826">ViaAdministracao: string</text><ellipse cx="281.5" cy="1119.6328" fill="none" rx="3" ry="3" style="stroke:#038048;stroke-width:1.0;"/><text fill="#000000" font-family="sans-serif" font-size="14" lengthAdjust="spacing" textLength="143" x="290.5" y="1122.9795">DataInicio: DateTime</text><ellipse cx="281.5" cy="1135.9297" fill="none" rx="3" ry="3" style="stroke:#038048;stroke-width:1.0;"/><text fill="#000000" font-family="sans-serif" font-size="14" lengthAdjust="spacing" textLength="139" x="290.5" y="1139.2764">DataFim: DateTime?</text><ellipse cx="281.5" cy="1152.2266" fill="none" rx="3" ry="3" style="stroke:#038048;stroke-width:1.0;"/><text fill="#000000" font-family="sans-serif" font-size="14" lengthAdjust="spacing" textLength="139" x="290.5" y="1155.5732">Observacoes: string</text><ellipse cx="281.5" cy="1168.5234" fill="none" rx="3" ry="3" style="stroke:#038048;stroke-width:1.0;"/><text fill="#000000" font-family="sans-serif" font-size="14" lengthAdjust="spacing" textLength="164" x="290.5" y="1171.8701">StatusPrescricao: string</text><ellipse cx="281.5" cy="1184.8203" fill="none" rx="3" ry="3" style="stroke:#038048;stroke-width:1.0;"/><text fill="#000000" font-family="sans-serif" font-size="14" lengthAdjust="spacing" textLength="179" x="290.5" y="1188.167">ReacoesAdversas: string?</text><line style="stroke:#181818;stroke-width:0.5;" x1="271.5" x2="474.5" y1="1195.4688" y2="1195.4688"/></g><!--MD5=[94306aacec917115f70afe7dab4a62fd]
class Internacao--><g id="elem_Internacao"><rect codeLine="86" fill="#F1F1F1" height="243.5625" id="Internacao" rx="2.5" ry="2.5" style="stroke:#181818;stroke-width:0.5;" width="221" x="510.5" y="976"/><ellipse cx="580.25" cy="992" fill="#ADD1B2" rx="11" ry="11" style="stroke:#181818;stroke-width:1.0;"/><path d="M583.2188,997.6406 Q582.6406,997.9375 582,998.0781 Q581.3594,998.2344 580.6563,998.2344 Q578.1563,998.2344 576.8281,996.5938 Q575.5156,994.9375 575.5156,991.8125 Q575.5156,988.6875 576.8281,987.0313 Q578.1563,985.375 580.6563,985.375 Q581.3594,985.375 582,985.5313 Q582.6563,985.6875 583.2188,985.9844 L583.2188,988.7031 Q582.5938,988.125 582,987.8594 Q581.4063,987.5781 580.7813,987.5781 Q579.4375,987.5781 578.75,988.6563 Q578.0625,989.7188 578.0625,991.8125 Q578.0625,993.9063 578.75,994.9844 Q579.4375,996.0469 580.7813,996.0469 Q581.4063,996.0469 582,995.7813 Q582.5938,995.5 583.2188,994.9219 L583.2188,997.6406 Z " fill="#000000"/><text fill="#000000" font-family="sans-serif" font-size="14" lengthAdjust="spacing" textLength="73" x="600.75" y="996.8467">Internacao</text><line style="stroke:#181818;stroke-width:0.5;" x1="511.5" x2="730.5" y1="1008" y2="1008"/><ellipse cx="521.5" cy="1021.6484" fill="none" rx="3" ry="3" style="stroke:#038048;stroke-width:1.0;"/><text fill="#000000" font-family="sans-serif" font-size="14" lengthAdjust="spacing" textLength="53" x="530.5" y="1024.9951">Id: Guid</text><ellipse cx="521.5" cy="1037.9453" fill="none" rx="3" ry="3" style="stroke:#038048;stroke-width:1.0;"/><text fill="#000000" font-family="sans-serif" font-size="14" lengthAdjust="spacing" textLength="113" x="530.5" y="1041.292">PacienteId: Guid</text><ellipse cx="521.5" cy="1054.2422" fill="none" rx="3" ry="3" style="stroke:#038048;stroke-width:1.0;"/><text fill="#000000" font-family="sans-serif" font-size="14" lengthAdjust="spacing" textLength="142" x="530.5" y="1057.5889">AtendimentoId: Guid</text><ellipse cx="521.5" cy="1070.5391" fill="none" rx="3" ry="3" style="stroke:#038048;stroke-width:1.0;"/><text fill="#000000" font-family="sans-serif" font-size="14" lengthAdjust="spacing" textLength="161" x="530.5" y="1073.8857">DataEntrada: DateTime</text><ellipse cx="521.5" cy="1086.8359" fill="none" rx="3" ry="3" style="stroke:#038048;stroke-width:1.0;"/><text fill="#000000" font-family="sans-serif" font-size="14" lengthAdjust="spacing" textLength="166" x="530.5" y="1090.1826">PrevisaoAlta: DateTime?</text><ellipse cx="521.5" cy="1103.1328" fill="none" rx="3" ry="3" style="stroke:#038048;stroke-width:1.0;"/><text fill="#000000" font-family="sans-serif" font-size="14" lengthAdjust="spacing" textLength="166" x="530.5" y="1106.4795">MotivoInternacao: string</text><ellipse cx="521.5" cy="1119.4297" fill="none" rx="3" ry="3" style="stroke:#038048;stroke-width:1.0;"/><text fill="#000000" font-family="sans-serif" font-size="14" lengthAdjust="spacing" textLength="81" x="530.5" y="1122.7764">Leito: string</text><ellipse cx="521.5" cy="1135.7266" fill="none" rx="3" ry="3" style="stroke:#038048;stroke-width:1.0;"/><text fill="#000000" font-family="sans-serif" font-size="14" lengthAdjust="spacing" textLength="95" x="530.5" y="1139.0732">Quarto: string</text><ellipse cx="521.5" cy="1152.0234" fill="none" rx="3" ry="3" style="stroke:#038048;stroke-width:1.0;"/><text fill="#000000" font-family="sans-serif" font-size="14" lengthAdjust="spacing" textLength="85" x="530.5" y="1155.3701">Setor: string</text><ellipse cx="521.5" cy="1168.3203" fill="none" rx="3" ry="3" style="stroke:#038048;stroke-width:1.0;"/><text fill="#000000" font-family="sans-serif" font-size="14" lengthAdjust="spacing" textLength="195" x="530.5" y="1171.667">PlanoSaudeUtilizado: string?</text><ellipse cx="521.5" cy="1184.6172" fill="none" rx="3" ry="3" style="stroke:#038048;stroke-width:1.0;"/><text fill="#000000" font-family="sans-serif" font-size="14" lengthAdjust="spacing" textLength="191" x="530.5" y="1187.9639">ObservacoesClinicas: string</text><ellipse cx="521.5" cy="1200.9141" fill="none" rx="3" ry="3" style="stroke:#038048;stroke-width:1.0;"/><text fill="#000000" font-family="sans-serif" font-size="14" lengthAdjust="spacing" textLength="165" x="530.5" y="1204.2607">StatusInternacao: string</text><line style="stroke:#181818;stroke-width:0.5;" x1="511.5" x2="730.5" y1="1211.5625" y2="1211.5625"/></g><!--MD5=[f4ad98c64d4521e33a722d8c5732bcb7]
class AltaHospitalar--><g id="elem_AltaHospitalar"><rect codeLine="101" fill="#F1F1F1" height="96.8906" id="AltaHospitalar" rx="2.5" ry="2.5" style="stroke:#181818;stroke-width:0.5;" width="219" x="511.5" y="1280"/><ellipse cx="570.25" cy="1296" fill="#ADD1B2" rx="11" ry="11" style="stroke:#181818;stroke-width:1.0;"/><path d="M573.2188,1301.6406 Q572.6406,1301.9375 572,1302.0781 Q571.3594,1302.2344 570.6563,1302.2344 Q568.1563,1302.2344 566.8281,1300.5938 Q565.5156,1298.9375 565.5156,1295.8125 Q565.5156,1292.6875 566.8281,1291.0313 Q568.1563,1289.375 570.6563,1289.375 Q571.3594,1289.375 572,1289.5313 Q572.6563,1289.6875 573.2188,1289.9844 L573.2188,1292.7031 Q572.5938,1292.125 572,1291.8594 Q571.4063,1291.5781 570.7813,1291.5781 Q569.4375,1291.5781 568.75,1292.6563 Q568.0625,1293.7188 568.0625,1295.8125 Q568.0625,1297.9063 568.75,1298.9844 Q569.4375,1300.0469 570.7813,1300.0469 Q571.4063,1300.0469 572,1299.7813 Q572.5938,1299.5 573.2188,1298.9219 L573.2188,1301.6406 Z " fill="#000000"/><text fill="#000000" font-family="sans-serif" font-size="14" lengthAdjust="spacing" textLength="93" x="590.75" y="1300.8467">AltaHospitalar</text><line style="stroke:#181818;stroke-width:0.5;" x1="512.5" x2="729.5" y1="1312" y2="1312"/><ellipse cx="522.5" cy="1325.6484" fill="none" rx="3" ry="3" style="stroke:#038048;stroke-width:1.0;"/><text fill="#000000" font-family="sans-serif" font-size="14" lengthAdjust="spacing" textLength="108" x="531.5" y="1328.9951">Data: DateTime</text><ellipse cx="522.5" cy="1341.9453" fill="none" rx="3" ry="3" style="stroke:#038048;stroke-width:1.0;"/><text fill="#000000" font-family="sans-serif" font-size="14" lengthAdjust="spacing" textLength="193" x="531.5" y="1345.292">CondicaoDoPaciente: string</text><ellipse cx="522.5" cy="1358.2422" fill="none" rx="3" ry="3" style="stroke:#038048;stroke-width:1.0;"/><text fill="#000000" font-family="sans-serif" font-size="14" lengthAdjust="spacing" textLength="172" x="531.5" y="1361.5889">InstrucoesPosAlta: string</text><line style="stroke:#181818;stroke-width:0.5;" x1="512.5" x2="729.5" y1="1368.8906" y2="1368.8906"/></g><!--MD5=[7376f583bf9fa99fa3a9325d130cd0a1]
reverse link Paciente to Prontuario--><g id="link_Paciente_Prontuario"><path codeLine="109" d="M345,453.47 C345,490 345,527.55 345,556.99 " fill="none" id="Paciente-backto-Prontuario" style="stroke:#181818;stroke-width:1.0;"/><polygon fill="#181818" points="345,440.07,341,446.07,345,452.07,349,446.07,345,440.07" style="stroke:#181818;stroke-width:1.0;"/><text fill="#000000" font-family="sans-serif" font-size="13" lengthAdjust="spacing" textLength="8" x="336.7688" y="459.6441">1</text><text fill="#000000" font-family="sans-serif" font-size="13" lengthAdjust="spacing" textLength="10" x="334.3594" y="545.8521">N</text></g><!--MD5=[5ef0ee56c4fe249d26eb316778072409]
link Prontuario to Atendimento--><g id="link_Prontuario_Atendimento"><path codeLine="110" d="M351.6,670.13 C355.27,701.05 359.89,739.98 363.9,773.76 " fill="none" id="Prontuario-to-Atendimento" style="stroke:#181818;stroke-width:1.0;"/><polygon fill="#181818" points="365.45,786.91,368.717,780.4814,364.0395,774.9932,360.7725,781.4218,365.45,786.91" style="stroke:#181818;stroke-width:1.0;"/><text fill="#000000" font-family="sans-serif" font-size="13" lengthAdjust="spacing" textLength="8" x="343.9331" y="690.41">1</text><text fill="#000000" font-family="sans-serif" font-size="13" lengthAdjust="spacing" textLength="10" x="354.0773" y="776.0728">N</text></g><!--MD5=[8b7f9818884b96a14feec89332850a39]
link ProfissionalDeSaude to Atendimento--><g id="link_ProfissionalDeSaude_Atendimento"><path codeLine="111" d="M486.27,725.59 C467.19,746.63 447.84,767.97 430.66,786.91 " fill="none" id="ProfissionalDeSaude-Atendimento" style="stroke:#181818;stroke-width:1.0;"/><text fill="#000000" font-family="sans-serif" font-size="13" lengthAdjust="spacing" textLength="8" x="470.5789" y="730.3328">1</text><text fill="#000000" font-family="sans-serif" font-size="13" lengthAdjust="spacing" textLength="10" x="426.4197" y="776.0728">N</text></g><!--MD5=[1401c30dd8fa213ac58197506fc34763]
link Atendimento to Prescricao--><g id="link_Atendimento_Prescricao"><path codeLine="112" d="M373,916.1 C373,939.31 373,966.21 373,992.05 " fill="none" id="Atendimento-Prescricao" style="stroke:#181818;stroke-width:1.0;"/><text fill="#000000" font-family="sans-serif" font-size="13" lengthAdjust="spacing" textLength="8" x="364.5375" y="936.4831">1</text><text fill="#000000" font-family="sans-serif" font-size="13" lengthAdjust="spacing" textLength="10" x="362.6641" y="981.5">N</text></g><!--MD5=[940f79d9bf29504c0d1f5c4f09cb1ef0]
link Atendimento to Exame--><g id="link_Atendimento_Exame"><path codeLine="113" d="M307.45,916.1 C270.26,952.18 223.87,997.19 186.66,1033.29 " fill="none" id="Atendimento-Exame" style="stroke:#181818;stroke-width:1.0;"/><text fill="#000000" font-family="sans-serif" font-size="13" lengthAdjust="spacing" textLength="8" x="291.4083" y="936.4831">1</text><text fill="#000000" font-family="sans-serif" font-size="13" lengthAdjust="spacing" textLength="10" x="183.2947" y="1022.4397">N</text></g><!--MD5=[d1861d53799aa2c904d3a3093006c437]
link Atendimento to Internacao--><g id="link_Atendimento_Internacao"><path codeLine="114" d="M437.51,916.1 C459.76,938.03 485.35,963.26 510.22,987.79 " fill="none" id="Atendimento-Internacao" style="stroke:#181818;stroke-width:1.0;"/><text fill="#000000" font-family="sans-serif" font-size="13" lengthAdjust="spacing" textLength="24" x="419.5815" y="936.4831">0..1</text><text fill="#000000" font-family="sans-serif" font-size="13" lengthAdjust="spacing" textLength="8" x="494.5082" y="976.9674">1</text></g><!--MD5=[3027ba381ccb1c6b0596fac5b98460be]
link Internacao to AltaHospitalar--><g id="link_Internacao_AltaHospitalar"><path codeLine="115" d="M621,1220.28 C621,1241.42 621,1262.25 621,1279.84 " fill="none" id="Internacao-AltaHospitalar" style="stroke:#181818;stroke-width:1.0;"/><text fill="#000000" font-family="sans-serif" font-size="13" lengthAdjust="spacing" textLength="24" x="596.3438" y="1239.4598">0..1</text><text fill="#000000" font-family="sans-serif" font-size="13" lengthAdjust="spacing" textLength="8" x="612.4375" y="1269.0264">1</text></g><!--MD5=[1d4d7b08f6502e468169d05e362bedd5]
link ProfissionalDeSaude to Especialidade--><g id="link_ProfissionalDeSaude_Especialidade"><path codeLine="116" d="M587,727.32 C587,761.21 587,795.67 587,819.5 " fill="none" id="ProfissionalDeSaude-Especialidade" style="stroke:#181818;stroke-width:1.0;"/><text fill="#000000" font-family="sans-serif" font-size="13" lengthAdjust="spacing" textLength="10" x="576.6797" y="747.1547">N</text><text fill="#000000" font-family="sans-serif" font-size="13" lengthAdjust="spacing" textLength="8" x="578.175" y="808.4031">1</text></g><!--MD5=[3b545a497099f08e9b7e5d1e6d1acb78]
reverse link Sexo to Paciente--><g id="link_Sexo_Paciente"><path codeLine="117" d="M294.79,125.16 C300.25,146.04 306.78,170.98 313.29,195.85 " fill="none" id="Sexo-backto-Paciente" style="stroke:#181818;stroke-width:1.0;"/><polygon fill="#181818" points="293.49,120.22,291.8866,129.9375,294.7498,125.0587,299.6286,127.9218,293.49,120.22" style="stroke:#181818;stroke-width:1.0;"/><text fill="#000000" font-family="sans-serif" font-size="13" lengthAdjust="spacing" textLength="8" x="286.6308" y="139.8577">1</text><text fill="#000000" font-family="sans-serif" font-size="13" lengthAdjust="spacing" textLength="7" x="304.1444" y="185.0337">*</text></g><!--MD5=[361fb81566c880e505d33e5649d861be]
reverse link EstadoCivil to Paciente--><g id="link_EstadoCivil_Paciente"><path codeLine="118" d="M391.7,141.33 C387.17,158.38 382.18,177.15 377.2,195.88 " fill="none" id="EstadoCivil-backto-Paciente" style="stroke:#181818;stroke-width:1.0;"/><polygon fill="#181818" points="393.09,136.1,386.9089,143.7677,391.8035,140.9316,394.6396,145.8262,393.09,136.1" style="stroke:#181818;stroke-width:1.0;"/><text fill="#000000" font-family="sans-serif" font-size="13" lengthAdjust="spacing" textLength="8" x="382.6723" y="156.4831">1</text><text fill="#000000" font-family="sans-serif" font-size="13" lengthAdjust="spacing" textLength="7" x="371.9489" y="185.0656">*</text></g><!--MD5=[3f0cc13121ef4db2a2ee7ae4453d2505]
@startuml
enum Sexo {
  Masculino
  Feminino
  Outro
}

enum EstadoCivil {
  Solteiro
  Casado
  Divorciado
  Viuvo
  Separado
}



class Paciente {
  + Id: Guid
  + NomeCompleto: string
  + CPF: string
  + DataNascimento: DateTime
  + TipoSanguineo: string
  + Telefone: string
  + Email: string
  + EnderecoCompleto: string
  + NumeroCartaoSUS: string
  + PossuiPlanoSaude: bool
  + EstadoCivil: EstadoCivil
  + Sexo: Sexo
}

class ProfissionalDeSaude {
  + Id: Guid
  + NomeCompleto: string
  + CPF: string
  + Email: string
  + Telefone: string
  + RegistroConselho: string
  + TipoRegistro: string
  + DataAdmissao: DateTime
  + CargaHorariaSemanal: int
  + Turno: string
  + Ativo: bool
}

class Especialidade {
  + Nome: string
}

class Prontuario {
  + Id: Guid
  + NumeroDoProntuario: int
  + DataDeAbertura: DateTime
  + ObservacoesDerais: string
}

class Atendimento {
  + Id: Guid
  + DataEHora: DateTime
  + Tipo: string
  + Status: string
  + Local: string
}

class Exame {
  + Id: Guid
  + Tipo: string
  + DataDeSolicitacao: DateTime
  + DataDeRealizacao: DateTime
  + Resultado: string
}

class Prescricao {
  + Id: Guid
  + Medicamento: string
  + Dosagem: string
  + Frequencia: string
  + ViaAdministracao: string
  + DataInicio: DateTime
  + DataFim: DateTime?
  + Observacoes: string
  + StatusPrescricao: string
  + ReacoesAdversas: string?
}

class Internacao {
  + Id: Guid
  + PacienteId: Guid
  + AtendimentoId: Guid
  + DataEntrada: DateTime
  + PrevisaoAlta: DateTime?
  + MotivoInternacao: string
  + Leito: string
  + Quarto: string
  + Setor: string
  + PlanoSaudeUtilizado: string?
  + ObservacoesClinicas: string
  + StatusInternacao: string
}

class AltaHospitalar {
  + Data: DateTime
  + CondicaoDoPaciente: string
  + InstrucoesPosAlta: string
}

' Definição de relacionamentos entre as classes

Paciente "1" *- - "N" Prontuario 
Prontuario "1" - -* "N" Atendimento 
ProfissionalDeSaude "1" - - "N" Atendimento
Atendimento "1" - - "N" Prescricao
Atendimento "1" - - "N" Exame 
Atendimento "0..1" - - "1" Internacao 
Internacao "0..1" - - "1" AltaHospitalar 
ProfissionalDeSaude "N" - - "1" Especialidade 
Sexo "1" <- - "*" Paciente
EstadoCivil "1" <- - "*" Paciente
@enduml

@startuml
enum Sexo {
  Masculino
  Feminino
  Outro
}

enum EstadoCivil {
  Solteiro
  Casado
  Divorciado
  Viuvo
  Separado
}



class Paciente {
  + Id: Guid
  + NomeCompleto: string
  + CPF: string
  + DataNascimento: DateTime
  + TipoSanguineo: string
  + Telefone: string
  + Email: string
  + EnderecoCompleto: string
  + NumeroCartaoSUS: string
  + PossuiPlanoSaude: bool
  + EstadoCivil: EstadoCivil
  + Sexo: Sexo
}

class ProfissionalDeSaude {
  + Id: Guid
  + NomeCompleto: string
  + CPF: string
  + Email: string
  + Telefone: string
  + RegistroConselho: string
  + TipoRegistro: string
  + DataAdmissao: DateTime
  + CargaHorariaSemanal: int
  + Turno: string
  + Ativo: bool
}

class Especialidade {
  + Nome: string
}

class Prontuario {
  + Id: Guid
  + NumeroDoProntuario: int
  + DataDeAbertura: DateTime
  + ObservacoesDerais: string
}

class Atendimento {
  + Id: Guid
  + DataEHora: DateTime
  + Tipo: string
  + Status: string
  + Local: string
}

class Exame {
  + Id: Guid
  + Tipo: string
  + DataDeSolicitacao: DateTime
  + DataDeRealizacao: DateTime
  + Resultado: string
}

class Prescricao {
  + Id: Guid
  + Medicamento: string
  + Dosagem: string
  + Frequencia: string
  + ViaAdministracao: string
  + DataInicio: DateTime
  + DataFim: DateTime?
  + Observacoes: string
  + StatusPrescricao: string
  + ReacoesAdversas: string?
}

class Internacao {
  + Id: Guid
  + PacienteId: Guid
  + AtendimentoId: Guid
  + DataEntrada: DateTime
  + PrevisaoAlta: DateTime?
  + MotivoInternacao: string
  + Leito: string
  + Quarto: string
  + Setor: string
  + PlanoSaudeUtilizado: string?
  + ObservacoesClinicas: string
  + StatusInternacao: string
}

class AltaHospitalar {
  + Data: DateTime
  + CondicaoDoPaciente: string
  + InstrucoesPosAlta: string
}


Paciente "1" *- - "N" Prontuario 
Prontuario "1" - -* "N" Atendimento 
ProfissionalDeSaude "1" - - "N" Atendimento
Atendimento "1" - - "N" Prescricao
Atendimento "1" - - "N" Exame 
Atendimento "0..1" - - "1" Internacao 
Internacao "0..1" - - "1" AltaHospitalar 
ProfissionalDeSaude "N" - - "1" Especialidade 
Sexo "1" <- - "*" Paciente
EstadoCivil "1" <- - "*" Paciente
@enduml

PlantUML version 1.2022.7(Mon Aug 22 17:01:30 UTC 2022)
(GPL source distribution)
Java Runtime: OpenJDK Runtime Environment
JVM: OpenJDK 64-Bit Server VM
Default Encoding: UTF-8
Language: en
Country: null
--></g></svg>